# This file uses centimeters as units for non-parametric coordinates.

mtllib card_uvs_low.mtl
g default
v -3.000000 -8.000000 0.500000
v 3.000000 -8.000000 0.500000
v -4.000000 -7.000000 0.500000
v -3.000000 -7.000000 0.500000
v 3.000000 -7.000000 0.500000
v 4.000000 -7.000000 0.500000
v -4.000000 7.000000 0.500000
v -3.000000 7.000000 0.500000
v 3.000000 7.000000 0.500000
v 4.000000 7.000000 0.500000
v -3.000000 8.000000 0.500000
v 3.000000 8.000000 0.500000
v -3.096375 7.996233 0.500000
v -3.181993 7.984961 0.500000
v -3.266304 7.966270 0.500000
v -3.348665 7.940302 0.500000
v -3.428449 7.907254 0.500000
v -3.505049 7.867378 0.500000
v -3.577883 7.820979 0.500000
v -3.646395 7.768407 0.500000
v -3.710065 7.710065 0.500000
v -3.768407 7.646395 0.500000
v -3.820978 7.577883 0.500000
v -3.867378 7.505050 0.500000
v -3.907254 7.428449 0.500000
v -3.940302 7.348665 0.500000
v -3.966270 7.266304 0.500000
v -3.984961 7.181993 0.500000
v -3.996233 7.096375 0.500000
v 3.996233 7.096375 0.500000
v 3.984961 7.181993 0.500000
v 3.966270 7.266304 0.500000
v 3.940302 7.348665 0.500000
v 3.907254 7.428449 0.500000
v 3.867378 7.505050 0.500000
v 3.820978 7.577883 0.500000
v 3.768407 7.646395 0.500000
v 3.710065 7.710065 0.500000
v 3.646395 7.768407 0.500000
v 3.577883 7.820979 0.500000
v 3.505049 7.867378 0.500000
v 3.428449 7.907254 0.500000
v 3.348665 7.940302 0.500000
v 3.266304 7.966270 0.500000
v 3.181993 7.984961 0.500000
v 3.096375 7.996233 0.500000
v -3.996233 -7.096375 0.500000
v -3.984961 -7.181993 0.500000
v -3.966270 -7.266304 0.500000
v -3.940302 -7.348665 0.500000
v -3.907254 -7.428449 0.500000
v -3.867378 -7.505050 0.500000
v -3.820978 -7.577883 0.500000
v -3.768407 -7.646395 0.500000
v -3.710065 -7.710065 0.500000
v -3.646395 -7.768407 0.500000
v -3.577883 -7.820979 0.500000
v -3.505049 -7.867378 0.500000
v -3.428449 -7.907254 0.500000
v -3.348665 -7.940302 0.500000
v -3.266304 -7.966270 0.500000
v -3.181993 -7.984961 0.500000
v -3.096375 -7.996233 0.500000
v 3.096375 -7.996233 0.500000
v 3.181993 -7.984961 0.500000
v 3.266304 -7.966270 0.500000
v 3.348665 -7.940302 0.500000
v 3.428449 -7.907254 0.500000
v 3.505049 -7.867378 0.500000
v 3.577883 -7.820979 0.500000
v 3.646395 -7.768407 0.500000
v 3.710065 -7.710065 0.500000
v 3.768407 -7.646395 0.500000
v 3.820978 -7.577883 0.500000
v 3.867378 -7.505050 0.500000
v 3.907254 -7.428449 0.500000
v 3.940302 -7.348665 0.500000
v 3.966270 -7.266304 0.500000
v 3.984961 -7.181993 0.500000
v 3.996233 -7.096375 0.500000
vt 0.313088 0.001569
vt 0.313088 0.063873
vt 0.686912 0.001569
vt 0.686912 0.063873
vt 0.250785 0.063873
vt 0.749215 0.063873
vt 0.313088 0.936127
vt 0.250785 0.936127
vt 0.686912 0.936127
vt 0.749215 0.936127
vt 0.313088 0.998431
vt 0.686912 0.998431
vt 0.307084 0.998197
vt 0.301749 0.997494
vt 0.296497 0.996330
vt 0.291365 0.994712
vt 0.286394 0.992652
vt 0.281621 0.990168
vt 0.277084 0.987277
vt 0.272815 0.984001
vt 0.268849 0.980367
vt 0.265214 0.976400
vt 0.261938 0.972132
vt 0.259048 0.967594
vt 0.256563 0.962821
vt 0.254504 0.957851
vt 0.252886 0.952719
vt 0.251722 0.947466
vt 0.251019 0.942131
vt 0.748981 0.942131
vt 0.748278 0.947466
vt 0.747114 0.952719
vt 0.745496 0.957851
vt 0.743437 0.962821
vt 0.740952 0.967594
vt 0.738062 0.972132
vt 0.734786 0.976400
vt 0.731151 0.980367
vt 0.727185 0.984001
vt 0.722916 0.987277
vt 0.718379 0.990168
vt 0.713606 0.992652
vt 0.708635 0.994712
vt 0.703503 0.996330
vt 0.698251 0.997494
vt 0.692916 0.998197
vt 0.251019 0.057869
vt 0.251722 0.052534
vt 0.252886 0.047281
vt 0.254504 0.042149
vt 0.256563 0.037179
vt 0.259048 0.032406
vt 0.261938 0.027868
vt 0.265214 0.023600
vt 0.268849 0.019633
vt 0.272815 0.015999
vt 0.277084 0.012723
vt 0.281621 0.009832
vt 0.286394 0.007348
vt 0.291365 0.005288
vt 0.296497 0.003670
vt 0.301749 0.002506
vt 0.307084 0.001803
vt 0.692916 0.001803
vt 0.698251 0.002506
vt 0.703503 0.003670
vt 0.708635 0.005288
vt 0.713606 0.007348
vt 0.718379 0.009832
vt 0.722916 0.012723
vt 0.727185 0.015999
vt 0.731151 0.019633
vt 0.734786 0.023600
vt 0.738062 0.027868
vt 0.740952 0.032406
vt 0.743437 0.037179
vt 0.745496 0.042149
vt 0.747114 0.047281
vt 0.748278 0.052534
vt 0.748981 0.057869
vn 0.000000 0.000000 1.000000
vn 0.000000 0.000000 1.000000
vn 0.000000 0.000000 1.000000
vn 0.000000 0.000000 1.000000
vn 0.000000 0.000000 1.000000
vn 0.000000 0.000000 1.000000
vn 0.000000 0.000000 1.000000
vn 0.000000 0.000000 1.000000
vn 0.000000 0.000000 1.000000
vn 0.000000 0.000000 1.000000
vn 0.000000 0.000000 1.000000
vn 0.000000 0.000000 1.000000
vn 0.000000 0.000000 1.000000
vn 0.000000 0.000000 1.000000
vn 0.000000 0.000000 1.000000
vn 0.000000 0.000000 1.000000
vn 0.000000 0.000000 1.000000
vn 0.000000 0.000000 1.000000
vn 0.000000 0.000000 1.000000
vn 0.000000 0.000000 1.000000
vn 0.000000 0.000000 1.000000
vn 0.000000 0.000000 1.000000
vn 0.000000 0.000000 1.000000
vn 0.000000 0.000000 1.000000
vn 0.000000 0.000000 1.000000
vn 0.000000 0.000000 1.000000
vn 0.000000 0.000000 1.000000
vn 0.000000 0.000000 1.000000
vn 0.000000 0.000000 1.000000
vn 0.000000 0.000000 1.000000
vn 0.000000 0.000000 1.000000
vn 0.000000 0.000000 1.000000
vn 0.000000 0.000000 1.000000
vn 0.000000 0.000000 1.000000
vn 0.000000 0.000000 1.000000
vn 0.000000 0.000000 1.000000
vn 0.000000 0.000000 1.000000
vn 0.000000 0.000000 1.000000
vn 0.000000 0.000000 1.000000
vn 0.000000 0.000000 1.000000
vn 0.000000 0.000000 1.000000
vn 0.000000 0.000000 1.000000
vn 0.000000 0.000000 1.000000
vn 0.000000 0.000000 1.000000
vn 0.000000 0.000000 1.000000
vn 0.000000 0.000000 1.000000
vn 0.000000 0.000000 1.000000
vn 0.000000 0.000000 1.000000
vn 0.000000 0.000000 1.000000
vn 0.000000 0.000000 1.000000
vn 0.000000 0.000000 1.000000
vn 0.000000 0.000000 1.000000
vn 0.000000 0.000000 1.000000
vn 0.000000 0.000000 1.000000
vn 0.000000 0.000000 1.000000
vn 0.000000 0.000000 1.000000
vn 0.000000 0.000000 1.000000
vn 0.000000 0.000000 1.000000
vn 0.000000 0.000000 1.000000
vn 0.000000 0.000000 1.000000
vn 0.000000 0.000000 1.000000
vn 0.000000 0.000000 1.000000
vn 0.000000 0.000000 1.000000
vn 0.000000 0.000000 1.000000
vn 0.000000 0.000000 1.000000
vn 0.000000 0.000000 1.000000
vn 0.000000 0.000000 1.000000
vn 0.000000 0.000000 1.000000
vn 0.000000 0.000000 1.000000
vn 0.000000 0.000000 1.000000
vn 0.000000 0.000000 1.000000
vn 0.000000 0.000000 1.000000
vn 0.000000 0.000000 1.000000
vn 0.000000 0.000000 1.000000
vn 0.000000 0.000000 1.000000
vn 0.000000 0.000000 1.000000
vn 0.000000 0.000000 1.000000
vn 0.000000 0.000000 1.000000
vn 0.000000 0.000000 1.000000
vn 0.000000 0.000000 1.000000
vn 0.000000 0.000000 1.000000
vn 0.000000 0.000000 1.000000
vn 0.000000 0.000000 1.000000
vn 0.000000 0.000000 1.000000
vn 0.000000 0.000000 1.000000
vn 0.000000 0.000000 1.000000
vn 0.000000 0.000000 1.000000
vn 0.000000 0.000000 1.000000
vn 0.000000 0.000000 1.000000
vn 0.000000 0.000000 1.000000
vn 0.000000 0.000000 1.000000
vn 0.000000 0.000000 1.000000
vn 0.000000 0.000000 1.000000
vn 0.000000 0.000000 1.000000
vn 0.000000 0.000000 1.000000
vn 0.000000 0.000000 1.000000
vn 0.000000 0.000000 1.000000
vn 0.000000 0.000000 1.000000
vn 0.000000 0.000000 1.000000
vn 0.000000 0.000000 1.000000
s off
g card_uvs:initialShadingGrouppCube1
usemtl initialShadingGroup
f 4/2/1 1/1/2 2/3/3 5/4/4
f 7/8/5 3/5/6 4/2/7 8/7/8
f 8/7/9 4/2/10 5/4/11 9/9/12
f 5/4/13 6/6/14 10/10/15 9/9/16
f 12/12/17 11/11/18 8/7/19 9/9/20
f 13/13/21 14/14/22 15/15/23 16/16/24 17/17/25 18/18/26 19/19/27 20/20/28 21/21/29 22/22/30 23/23/31 24/24/32 25/25/33 26/26/34 27/27/35 28/28/36 29/29/37 7/8/38 8/7/39 11/11/40
f 30/30/41 31/31/42 32/32/43 33/33/44 34/34/45 35/35/46 36/36/47 37/37/48 38/38/49 39/39/50 40/40/51 41/41/52 42/42/53 43/43/54 44/44/55 45/45/56 46/46/57 12/12/58 9/9/59 10/10/60
f 47/47/61 48/48/62 49/49/63 50/50/64 51/51/65 52/52/66 53/53/67 54/54/68 55/55/69 56/56/70 57/57/71 58/58/72 59/59/73 60/60/74 61/61/75 62/62/76 63/63/77 1/1/78 4/2/79 3/5/80
f 64/64/81 65/65/82 66/66/83 67/67/84 68/68/85 69/69/86 70/70/87 71/71/88 72/72/89 73/73/90 74/74/91 75/75/92 76/76/93 77/77/94 78/78/95 79/79/96 80/80/97 6/6/98 5/4/99 2/3/100
